<svg xmlns="http://www.w3.org/2000/svg" xmlns:svg="http://www.w3.org/2000/svg" id="svg20" width="2000" height="2000" version="1.2" viewBox="0 0 2000 2000"><title id="title2">Logo</title><metadata id="metadata26"/><path style="stroke-width:2.63374" id="path10" d="m 288.75691,1725.5245 h 64.58355 l -32.17824,-85.3711 z m 68.68141,11.1259 h -72.78719 l -14.15241,37.4656 c -0.90565,2.4222 -2.65886,3.6332 -5.24642,3.6332 -0.30101,0 -0.64953,-0.032 -1.03239,-0.1024 a 4.9374998,4.9127327 0 0 0 -1.02182,-0.1234 c -1.373,-0.6043 -2.39218,-1.6211 -3.08396,-3.058 -0.68122,-1.445 -0.72082,-2.8531 -0.11354,-4.2166 l 55.45842,-147.3556 c 1.06407,-2.2673 2.88857,-3.4075 5.47614,-3.4075 2.87801,0 4.70515,1.1402 5.46557,3.4075 l 55.46106,147.3556 c 0.60729,1.3662 0.60729,2.769 0,4.2166 -0.60728,1.4369 -1.60006,2.4537 -2.97042,3.058 -0.45414,0 -0.83699,0.042 -1.13536,0.1234 -0.30892,0.071 -0.60728,0.1051 -0.91885,0.1051 -1.06143,0 -2.08325,-0.2995 -3.07339,-0.9143 -0.99014,-0.5964 -1.71097,-1.5106 -2.16511,-2.7216 z m 0,0 m 251.71216,35.6502 v -130.7812 l -51.11765,70.6146 c -1.07199,1.6604 -2.58756,2.5037 -4.55728,2.5037 h -0.45415 c -2.13606,0 -3.73349,-0.8406 -4.79756,-2.5037 l -51.115,-70.3886 v 130.5552 c 0,1.508 -0.536,2.8005 -1.61063,3.8592 -1.06143,1.0667 -2.34993,1.5894 -3.87607,1.5894 -1.67136,0 -3.04171,-0.5253 -4.09258,-1.5894 a 5.2147391,5.1885814 0 0 1 -1.60007,-3.8618 v -147.1376 c 0,-1.8155 0.75251,-3.2525 2.27073,-4.3086 l 0.4515,-0.4519 c 1.21457,-0.7618 2.58757,-1.0166 4.11634,-0.7907 a 5.3758019,5.3488362 0 0 1 3.649,2.1437 l 56.83142,78.3542 56.58321,-78.3542 c 0.76307,-1.2085 1.9486,-1.9178 3.54603,-2.1437 1.60006,-0.2259 3.0021,0.032 4.21932,0.7881 0.76306,0.7514 1.29906,1.3556 1.59742,1.8181 0.60729,1.211 0.91885,2.1962 0.91885,2.945 v 147.1402 c 0,1.508 -0.53599,2.8005 -1.59742,3.8592 a 5.2781081,5.2516325 0 0 1 -3.88928,1.5894 c -1.67135,0 -3.0021,-0.5253 -3.99224,-1.5894 -0.99014,-1.0587 -1.48389,-2.3512 -1.48389,-3.8618 m 141.73265,-46.7735 h 64.57563 l -32.17824,-85.3711 z m 68.67085,11.1259 h -72.78456 l -14.1524,37.4656 c -0.90565,2.4222 -2.65886,3.6332 -5.24907,3.6332 -0.29836,0 -0.64953,-0.032 -1.02974,-0.1024 a 4.9374998,4.9127327 0 0 0 -1.02183,-0.1234 c -1.37299,-0.6043 -2.39218,-1.6211 -3.08395,-3.058 -0.68122,-1.445 -0.72347,-2.8531 -0.11354,-4.2166 l 55.45842,-147.3556 c 1.06143,-2.2673 2.88593,-3.4075 5.47614,-3.4075 2.878,0 4.71306,1.1402 5.47613,3.4075 l 55.44786,147.3556 c 0.60729,1.3662 0.60729,2.769 0,4.2166 -0.60729,1.4369 -1.59743,2.4537 -2.95722,3.058 -0.46735,0 -0.84756,0.042 -1.14856,0.1234 -0.30893,0.071 -0.60729,0.1051 -0.91621,0.1051 -1.06407,0 -2.0859,-0.2995 -3.0734,-0.9143 -0.99014,-0.5964 -1.7136,-1.5106 -2.1651,-2.7216 z m 0,0 m 163.86954,29.9757 c 9.42614,0 18.31628,-1.7865 26.69418,-5.3359 8.3515,-3.5518 15.6653,-8.4067 21.9046,-14.5332 6.2312,-6.1265 11.1397,-13.351 14.7174,-21.6843 3.5803,-8.3228 5.3732,-17.1788 5.3732,-26.5681 0,-9.5339 -1.7955,-18.4294 -5.3732,-26.6707 -3.5777,-8.2624 -8.4888,-15.4869 -14.7174,-21.6842 -6.2393,-6.208 -13.5531,-11.1339 -21.9072,-14.7672 -8.3753,-3.6333 -17.26544,-5.4381 -26.69422,-5.4381 h -24.19375 v 136.6817 z m -29.44809,11.1231 h -0.91621 a 5.771858,5.7429057 0 0 1 -3.5381,-1.6918 c -0.99014,-0.9852 -1.47597,-2.2488 -1.47597,-3.7568 v -148.044 c 0,-1.5185 0.52807,-2.8005 1.60007,-3.8567 1.05087,-1.0587 2.34993,-1.6025 3.86814,-1.6025 h 29.91016 c 10.94171,0 21.28668,2.0939 31.03498,6.2525 9.7245,4.164 18.2027,9.8702 25.4426,17.1474 7.2215,7.264 12.9247,15.7417 17.1097,25.4174 4.1797,9.6994 6.2735,19.9925 6.2735,30.8899 0,10.8998 -2.0938,21.2008 -6.2709,30.8792 -4.1876,9.6888 -9.8908,18.0931 -17.1096,25.2047 -7.2426,7.1195 -15.7208,12.7547 -25.4453,16.9213 -9.7483,4.1666 -20.09327,6.2394 -31.03498,6.2394 z m 0,0 m 215.20107,-5.4486 v -148.044 c 0,-1.5185 0.5175,-2.8005 1.6001,-3.8567 1.0508,-1.0587 2.3499,-1.6025 3.8681,-1.6025 h 82.1605 c 1.6714,0 2.9995,0.5438 3.9896,1.6025 0.9902,1.0562 1.4866,2.3382 1.4866,3.8567 0,1.663 -0.4964,3.0291 -1.4866,4.0852 -0.9901,1.0666 -2.3182,1.6026 -3.9896,1.6026 h -76.4467 v 62.8855 h 66.8648 c 1.5156,0 2.8041,0.5334 3.8787,1.5895 1.0615,1.0587 1.5974,2.4222 1.5974,4.0852 0,1.5184 -0.5359,2.8031 -1.5974,3.8591 a 5.3097926,5.283158 0 0 1 -3.8813,1.5896 h -66.8622 v 62.6728 h 76.4467 c 1.6714,0 2.9995,0.5332 3.9896,1.5893 0.9902,1.0693 1.4866,2.4222 1.4866,4.0852 0,1.508 -0.4964,2.8005 -1.4866,3.8592 -0.9901,1.0667 -2.3182,1.5894 -3.9896,1.5894 h -82.6173 a 5.771858,5.7429057 0 0 1 -3.5381,-1.6918 c -0.9875,-0.9852 -1.4733,-2.2488 -1.4733,-3.7568 m 204.0217,-58.803 v -89.241 c 0,-1.5185 0.5149,-2.8005 1.5869,-3.8567 1.064,-1.0587 2.3525,-1.6025 3.8813,-1.6025 1.6687,0 3.0391,0.5438 4.1032,1.6025 1.072,1.0562 1.5974,2.3382 1.5974,3.8567 v 89.2435 c 0,7.2509 1.402,14.1183 4.2193,20.5442 a 55.835994,55.555914 0 0 0 11.417,16.9187 c 4.787,4.8471 10.4295,8.6643 16.8957,11.4543 6.4558,2.8032 13.3339,4.2088 20.6478,4.2088 7.4458,0 14.4085,-1.4056 20.8748,-4.2088 a 54.47092,54.197687 0 0 0 17.0093,-11.4543 c 4.8582,-4.8417 8.6921,-10.4848 11.5199,-16.9187 2.8041,-6.4259 4.2272,-13.2933 4.2272,-20.5442 v -89.2435 c 0,-1.5185 0.5281,-2.8005 1.5896,-3.8567 1.0614,-1.0587 2.3499,-1.6025 3.8787,-1.6025 1.6687,0 3.0417,0.5438 4.1031,1.6025 1.0746,1.0562 1.6001,2.3382 1.6001,3.8567 v 89.2435 c 0,8.9165 -1.7031,17.2787 -5.1276,25.0892 -3.422,7.7999 -8.0637,14.5727 -13.9227,20.3076 -5.859,5.7692 -12.7081,10.3458 -20.5342,13.7531 -7.8499,3.4074 -16.2462,5.0992 -25.2182,5.0992 -8.8294,0 -17.1625,-1.6918 -24.9912,-5.0992 -7.8392,-3.4073 -14.6461,-7.9864 -20.4312,-13.7531 -5.7771,-5.7349 -10.3767,-12.5077 -13.8012,-20.3076 -3.4246,-7.8105 -5.125,-16.1727 -5.125,-25.0892 m 247.3687,41.5402 c -1.0719,-0.9142 -1.6502,-2.0438 -1.7109,-3.3968 -0.092,-1.3661 0.2587,-2.5746 1.0218,-3.6334 0.9162,-1.211 2.0516,-1.8573 3.4219,-1.9387 1.373,-0.071 2.5876,0.3467 3.6622,1.2504 2.878,2.4327 6.3026,4.855 10.2632,7.2667 3.9605,2.4222 8.1693,4.6184 12.6658,6.5888 4.4755,1.9704 9.2414,3.5598 14.2528,4.7709 a 64.794783,64.469766 0 0 0 15.3062,1.8154 c 6.9838,0 13.4923,-0.9537 19.5045,-2.8426 6.0015,-1.8968 11.2216,-4.4319 15.6257,-7.6134 9.1278,-6.4969 13.6956,-14.3678 13.6956,-23.6021 0,-4.5451 -1.0614,-8.5592 -3.1948,-12.0376 -2.1255,-3.4809 -5.4075,-6.7333 -9.8222,-9.7597 -4.4121,-2.8846 -9.7245,-5.3778 -15.9743,-7.5032 -6.2207,-2.1017 -13.223,-3.9301 -20.9804,-5.4381 h -0.4621 c -7.459,-1.3661 -14.3794,-3.1106 -20.7639,-5.2332 -6.3923,-2.1148 -12.0242,-4.8445 -16.8825,-8.1704 -4.8794,-3.171 -8.8294,-7.1116 -11.8711,-11.8116 -3.0444,-4.6789 -4.56,-9.9831 -4.56,-15.8862 0,-6.0529 1.5156,-11.6251 4.56,-16.6849 3.0417,-5.0704 7.0656,-9.4314 12.0982,-13.0648 5.022,-3.6333 10.7885,-6.4627 17.3367,-8.5171 6.5402,-2.0413 13.6137,-3.0686 21.2286,-3.0686 5.1645,0 10.0651,0.5755 14.7148,1.7129 4.6417,1.1298 9.0168,2.6088 13.1226,4.4241 a 89.95755,89.506313 0 0 1 11.4064,6.0137 c 3.4959,2.1961 6.8465,4.29 10.044,6.2393 1.2278,0.7697 1.9407,1.8259 2.1651,3.1789 a 5.4866976,5.4591757 0 0 1 -0.7921,3.8723 c -0.7736,1.2085 -1.7954,1.9178 -3.0839,2.1437 -1.2991,0.2366 -2.548,-0.026 -3.7652,-0.7802 a 201.01961,200.01128 0 0 0 -19.9665,-11.4727 c -7.0762,-3.5519 -15.029,-5.3357 -23.8479,-5.3357 -6.5481,0 -12.6342,0.8827 -18.2555,2.6061 -5.6319,1.7444 -10.4269,4.0642 -14.3874,6.9278 -3.95,3.0264 -7.034,6.4022 -9.2308,10.1065 -2.2073,3.7148 -3.311,7.6056 -3.311,11.6987 0.1452,7.574 4.1058,13.9999 11.8711,19.2935 3.95,2.7323 8.8189,5.081 14.6039,7.0512 5.7772,1.9705 12.3147,3.623 19.6286,4.9864 h 0.4436 c 8.0663,1.5185 15.5227,3.4494 22.3718,5.7876 6.8465,2.3381 12.922,5.2648 18.2556,8.743 5.3336,3.4811 9.5898,7.7685 12.7688,12.8283 3.1949,5.0705 4.8055,10.787 4.8055,17.15 0,6.3523 -1.6819,12.2633 -5.0325,17.712 -3.3427,5.4381 -7.6756,10.1407 -13.0065,14.0815 -5.323,3.9406 -11.4804,6.996 -18.4826,9.1949 -6.9944,2.1937 -14.5221,3.2839 -22.5752,3.2839 -6.0993,0 -11.9556,-0.7093 -17.577,-2.1568 a 103.20431,102.68662 0 0 1 -29.9102,-12.8284 161.03642,160.22865 0 0 1 -11.3985,-7.9523 M 39.819787,1426.5361 27.204079,1414.0258 1003.1946,439.86239 l 967.75,974.19231 -12.6764,12.4604 -955.1264,-961.47692 z m 0,0"/><path style="stroke-width:2.63374" id="path12" d="m 37.776137,1428.0652 -8.528408,-15.558 852.212461,-461.61551 642.97071,462.20931 -10.4374,14.3704 -633.86406,-455.68616 z m 0,0"/><path style="stroke-width:2.63374" id="path14" d="M 1959.6808,1427.6659 998.0776,791.70075 447.14768,1019 l -6.82801,-16.3801 559.71973,-230.91948 3.95,2.62713 965.54,638.57645 z m 0,0"/><path style="stroke-width:2.63374" id="path16" d="M 1136.8108,1154.5862 990.77697,784.94903 1007.34,778.45477 1153.3765,1148.0919 Z m 0,0 M 42.417915,1965.3737 H 1955.6991 V 1429.1422 H 42.417915 Z M 1973.511,1983.0963 H 24.605951 V 1411.4196 H 1973.511 Z m 0,0"/><path style="stroke-width:2.63374" id="path18" d="M 42.417915,1411.4196 H 1955.6991 V 55.347796 H 42.417915 Z M 1973.511,1429.1422 H 24.605951 V 37.625177 H 1973.511 Z m 0,0"/></svg>