<svg xmlns="http://www.w3.org/2000/svg" xmlns:xlink="http://www.w3.org/1999/xlink" width="112" height="99" version="1.1" viewBox="0 0 112 99"><title>Logo</title><desc>Created with Sketch.</desc><defs><path id="path-1" d="M0,8.74342194 C0,3.91456334 3.90596835,0 8.70947042,0 L102.876305,0 C107.686413,0 111.585775,3.90375306 111.585775,8.74342194 L111.585775,89.2957938 C111.585775,94.1246523 107.679807,98.0392157 102.876305,98.0392157 L8.70947042,98.0392157 C3.89936274,98.0392157 0,94.1354625 0,89.2957938 L0,8.74342194 Z"/><linearGradient id="linearGradient-3" x1="47.952%" x2="47.952%" y1="97.595%" y2="0%"><stop offset="0%" stop-color="#FFB300"/><stop offset="61.372%" stop-color="#DD3939"/><stop offset="100%" stop-color="#FF1BB4"/></linearGradient><path id="path-4" d="M0,8.74342194 C0,3.91456334 3.90596835,0 8.70947042,0 L102.876305,0 C107.686413,0 111.585775,3.90375306 111.585775,8.74342194 L111.585775,89.2957938 C111.585775,94.1246523 107.679807,98.0392157 102.876305,98.0392157 L8.70947042,98.0392157 C3.89936274,98.0392157 0,94.1354625 0,89.2957938 L0,8.74342194 Z"/></defs><g id="Page-1" fill="none" fill-rule="evenodd" stroke="none" stroke-width="1"><g id="Color-Hyper" transform="translate(-294.000000, -150.000000)"><g id="Logo" transform="translate(294.000000, 150.000000)"><g id="Group"><g id="Clipped"><mask id="mask-2" fill="#fff"><use xlink:href="#path-1"/></mask><g id="a-link" fill="#000" stroke="url(#linearGradient-3)" stroke-width="10.458" mask="url(#mask-2)"><path id="a" d="M0,8.74342194 C0,3.91456334 3.90596835,0 8.70947042,0 L102.876305,0 C107.686413,0 111.585775,3.90375306 111.585775,8.74342194 L111.585775,89.2957938 C111.585775,94.1246523 107.679807,98.0392157 102.876305,98.0392157 L8.70947042,98.0392157 C3.89936274,98.0392157 0,94.1354625 0,89.2957938 L0,8.74342194 Z"/></g></g><rect id="Rectangle-path" width="16.776" height="3.281" x="33.192" y="36.579" fill="#FFF"/><polygon id="Shape" fill="#FFF" points="28.076 28.078 21.184 24.417 26.183 11.971 11.413 25.338 17.903 29.746 13.305 41.446"/></g><g id="Group"><g id="Clipped"><mask id="mask-5" fill="#fff"><use xlink:href="#path-4"/></mask></g><rect id="Rectangle-path" width="16.776" height="3.281" x="33.192" y="36.579" fill="#FFF"/><polygon id="Shape" fill="#FFF" points="28.076 28.078 21.184 24.417 26.183 11.971 11.413 25.338 17.903 29.746 13.305 41.446"/></g></g></g></g></svg>